<?xml version="1.0" encoding="UTF-8"?> <!-- Generator: Adobe Illustrator 23.0.3, SVG Export Plug-In . SVG Version: 6.00 Build 0) --> <svg xmlns="http://www.w3.org/2000/svg" xmlns:xlink="http://www.w3.org/1999/xlink" id="Layer_1" x="0px" y="0px" viewBox="0 0 93 60" style="enable-background:new 0 0 93 60;" xml:space="preserve"> <style type="text/css"> .st0{fill:#737372;} .st1{fill:#F08D17;} .st2{fill:#FDFBF9;} .st3{fill:#FEFEFE;} .st4{fill:#EE7F1B;} .st5{fill:url(#SVGID_1_);} .st6{fill:url(#SVGID_2_);} .st7{fill:url(#SVGID_3_);} .st8{fill:url(#SVGID_4_);} .st9{fill:url(#SVGID_5_);} </style> <g id="VJC_Immigration__x26__Visa_consultants"> <g id="Immigration__x26__Visa"> <path class="st0" d="M2.3,43c0-0.7,0-1.4,0-2.1c0-0.8,0.5-1.4,1.3-1.5c0.8-0.1,1.4,0.3,1.6,1c0.4,1.2,0.8,2.4,1.2,3.5 c0.1,0.2,0.1,0.4,0.4,0.4c0.3,0,0.5-0.1,0.5-0.5c0-1,0-2,0-2.9c0-1.1,0.9-1.8,1.9-1.5c0.5,0.1,0.8,0.4,1,0.9 c0.6,1.6,1.1,3.2,1.7,4.8c0.1,0.3,0,0.3-0.2,0.3c0,0-0.1,0-0.1,0c-0.8,0-0.8,0-1.1-0.8C10,43.4,9.6,42.2,9.1,41 C9,40.7,9,40.4,8.6,40.5c-0.3,0-0.4,0.2-0.4,0.6c0,1,0,1.9,0,2.9c0,0.6-0.2,1-0.8,1.3c-0.5,0.3-1.1,0.3-1.6-0.1 c-0.3-0.2-0.4-0.4-0.5-0.8C5,43.3,4.6,42.1,4.2,41c0-0.1,0-0.1-0.1-0.2c-0.1-0.2-0.2-0.4-0.4-0.4c-0.3,0-0.4,0.2-0.4,0.5 c0,1.3,0,2.6,0,4c0,0.5,0,0.5-0.5,0.5c-0.6,0-0.6,0-0.6-0.6C2.3,44.2,2.3,43.6,2.3,43z"></path> <path class="st0" d="M12.5,43c0-0.7,0-1.4,0-2c0-0.8,0.5-1.4,1.3-1.5c0.8-0.1,1.4,0.3,1.6,1c0.4,1.2,0.8,2.4,1.2,3.5 c0.1,0.2,0.1,0.4,0.4,0.4c0.3,0,0.4-0.2,0.4-0.5c0-1,0-1.9,0-2.9c0-0.1,0-0.2,0-0.3c0.1-0.7,0.6-1.2,1.3-1.2 c0.7-0.1,1.3,0.3,1.5,0.9c0.6,1.6,1.1,3.2,1.7,4.8c0.1,0.2,0.1,0.3-0.2,0.3c-0.3,0-0.7,0.1-0.9,0c-0.2-0.1-0.2-0.5-0.3-0.8 c-0.4-1.2-0.8-2.4-1.3-3.6c-0.1-0.2-0.1-0.5-0.5-0.5c-0.3,0-0.4,0.2-0.4,0.7c0,1,0,1.9,0,2.9c0,0.6-0.4,1.1-0.9,1.3 c-0.6,0.2-1.3,0.1-1.7-0.3c-0.2-0.2-0.2-0.4-0.3-0.6c-0.4-1.2-0.8-2.3-1.1-3.5c0-0.1-0.1-0.2-0.1-0.3c-0.1-0.1-0.2-0.2-0.3-0.2 c-0.2,0-0.3,0.1-0.4,0.2c-0.1,0.1-0.1,0.3-0.1,0.4c0,1.4,0,2.7,0,4.1c0,0.2-0.1,0.3-0.3,0.3c-0.3,0-0.6,0.1-0.8-0.1 c-0.2-0.2-0.1-0.5-0.1-0.8C12.5,44,12.5,43.5,12.5,43z"></path> <path class="st0" d="M54.5,43c0-0.7,0-1.4,0-2.1c0-0.8,0.5-1.4,1.3-1.5c0.8-0.1,1.4,0.3,1.6,1c0.4,1.1,0.7,2.3,1.1,3.4 c0,0.1,0.1,0.2,0.1,0.3c0.1,0.2,0.2,0.3,0.4,0.2c0.2,0,0.3-0.1,0.3-0.3c0-0.1,0-0.3,0-0.4c0-1.3,0-2.7,0-4c0-0.2,0.1-0.3,0.3-0.3 c0.3,0,0.6-0.1,0.8,0.1c0.2,0.2,0,0.5,0,0.8c0,1.2,0,2.4,0,3.7c0,1.4-1.5,1.8-2.3,1.3c-0.4-0.2-0.5-0.5-0.7-0.9 c-0.4-1.1-0.7-2.3-1.1-3.4c0-0.1-0.1-0.2-0.1-0.2c-0.1-0.2-0.2-0.3-0.4-0.3c-0.2,0-0.4,0.2-0.4,0.4c0,0.1,0,0.2,0,0.3 c0,1.3,0,2.7,0,4c0,0.2,0,0.3-0.3,0.3c-0.3,0-0.6,0.1-0.8-0.1c-0.2-0.1-0.1-0.5-0.1-0.8C54.5,44.1,54.5,43.5,54.5,43z"></path> <path class="st0" d="M33.2,43c0.7,0.4,1.3,0.8,2,1.1c0.2,0.1,0.3,0.2,0.3,0.5c0,0.3,0,0.6,0,0.9c-1.3-0.8-2.6-1.6-3.9-2.4 c0,0.7,0,1.3,0,2c0,0.2-0.1,0.3-0.3,0.3c-0.2,0-0.6,0.1-0.7-0.1c-0.2-0.2,0-0.5,0-0.7c0-1.6,0-3.3,0-4.9c0-0.2,0-0.3,0.3-0.3 c1,0,2.1-0.1,3.1,0c0.9,0.1,1.5,0.8,1.5,1.7c0,0.9-0.6,1.6-1.5,1.7C33.7,42.9,33.5,42.9,33.2,43C33.2,43,33.2,43,33.2,43z M32.7,41.9c0.3,0,0.6,0,0.9,0c0.4,0,0.7-0.3,0.7-0.7c0-0.4-0.3-0.7-0.7-0.7c-0.6,0-1.2,0-1.9,0c-0.1,0-0.2,0-0.2,0.2 c0,0.4,0,0.7,0,1.1c0,0.2,0.1,0.2,0.2,0.2C32.1,41.9,32.4,41.9,32.7,41.9z"></path> <path class="st0" d="M50.8,45.4c-0.3,0-0.6,0-1,0c-1-0.2-1.6-0.8-1.9-1.8c-0.2-0.7-0.2-1.5,0-2.2c0.3-1.1,1-1.8,2.1-1.9 c0.5-0.1,1-0.1,1.6,0c1,0.1,1.7,0.8,2,1.8c0.2,0.8,0.2,1.6,0,2.3c-0.3,1.1-1.1,1.7-2.2,1.8C51.2,45.4,51,45.4,50.8,45.4z M50.8,44.4C50.8,44.4,50.8,44.4,50.8,44.4c0.1,0,0.3,0,0.4,0c0.8,0,1.2-0.3,1.4-1.1c0.1-0.6,0.1-1.1,0-1.7 c-0.2-0.7-0.5-1.1-1.3-1.1c-0.4,0-0.8,0-1.1,0c-0.7,0-1.1,0.4-1.2,1.1c-0.1,0.6-0.1,1.2,0,1.8c0.2,0.6,0.6,1,1.2,1 C50.4,44.4,50.6,44.4,50.8,44.4z"></path> <path class="st0" d="M82.8,45.4c-0.5,0-1,0-1.6,0c-0.2,0-0.2,0-0.2-0.2c0-0.8,0-0.8,0.8-0.8c0.8,0,1.6,0,2.4,0 c0.5,0,0.7-0.3,0.7-0.7c0-0.4-0.3-0.7-0.7-0.7c-0.6,0-1.3,0-1.9,0c-0.9-0.1-1.5-0.8-1.6-1.7c0-1,0.6-1.6,1.5-1.7 c1.1-0.1,2.2,0,3.2,0c0.1,0,0.2,0,0.2,0.1c0,0,0,0,0,0.1c0,0.8,0,0.8-0.8,0.8c-0.8,0-1.5,0-2.3,0c-0.5,0-0.8,0.4-0.7,0.9 c0.1,0.3,0.3,0.5,0.7,0.5c0.5,0,1,0,1.6,0c0.2,0,0.4,0,0.6,0.1c1,0.2,1.4,0.9,1.3,1.9c-0.1,0.9-0.7,1.5-1.6,1.5 C83.8,45.4,83.3,45.4,82.8,45.4C82.8,45.4,82.8,45.4,82.8,45.4z"></path> <path class="st0" d="M28.1,40.5c-0.4,0-0.7,0-1.1,0c-0.8,0-1.2,0.4-1.3,1.1c-0.1,0.6-0.1,1.2,0.1,1.8c0.2,0.6,0.6,0.9,1.2,0.9 c0.4,0,0.9,0,1.3,0c0.4,0,0.7-0.3,0.7-0.7c0-0.4-0.3-0.7-0.7-0.7c-0.1,0-0.1,0-0.2,0c-0.2,0-0.6,0.1-0.7-0.1c-0.2-0.2,0-0.6,0-0.9 c0-0.1,0.1-0.1,0.2-0.1c0.3,0,0.6,0,1,0c0.9,0.1,1.6,0.9,1.5,1.8c0,1-0.8,1.7-1.7,1.7c-0.5,0-1.1,0-1.6,0c-1.3-0.2-2-1-2.1-2.3 c-0.1-0.5-0.1-1,0-1.5c0.3-1.4,1-2.1,2.5-2.2c0.7,0,1.4,0,2.2,0c0.2,0,0.2,0.1,0.2,0.2c0,0.2,0,0.4,0,0.6c0,0.2-0.1,0.2-0.2,0.2 C28.8,40.5,28.5,40.5,28.1,40.5z"></path> <path class="st0" d="M67.1,45.4c-0.5,0-1,0-1.5,0c-0.7,0-1.2-0.3-1.5-1c-0.3-0.6-0.2-1.3,0.2-1.9c0.1-0.2,0.1-0.2,0-0.4 c-0.4-0.5-0.5-1.2-0.2-1.8c0.2-0.6,0.7-0.9,1.3-1c0.3,0,0.6,0,0.9,0c0.1,0,0.2,0,0.2,0.2c0,0.2,0,0.4,0,0.7c0,0.2-0.1,0.2-0.2,0.2 c-0.2,0-0.4,0-0.6,0c-0.4,0-0.7,0.3-0.7,0.7c0,0.4,0.3,0.7,0.7,0.7c0.9,0,1.9,0,2.8,0c0.2,0,0.3,0.1,0.3,0.3c0,0,0,0,0,0.1 c0,0.2,0.1,0.5,0,0.7c-0.1,0.2-0.4,0-0.6,0C68,42.9,68,43,68,43.1c0,0.3,0,0.7,0,1c0,0.1,0,0.2,0.2,0.2c0,0,0,0,0,0 c0.2,0,0.6-0.1,0.6,0.1c0.1,0.3,0,0.6,0,0.9c0,0.2-0.1,0.1-0.2,0.1C68.2,45.4,67.6,45.4,67.1,45.4C67.1,45.4,67.1,45.4,67.1,45.4z M67,43.7c0-0.2,0-0.4,0-0.6c0-0.1,0-0.2-0.1-0.2c-0.4,0-0.8,0-1.2,0c-0.4,0.1-0.6,0.4-0.5,0.8c0,0.4,0.3,0.6,0.6,0.6 c0.2,0,0.4,0,0.6,0C67,44.4,67,44.4,67,43.7z"></path> <path class="st0" d="M36,45.4c0.2-0.7,0.5-1.4,0.7-2c0.4-1,0.7-2,1.1-3.1c0.3-0.7,0.9-1,1.7-0.8c0.3,0.1,0.6,0.3,0.7,0.7 c0.6,1.7,1.2,3.3,1.8,5c0.1,0.2,0,0.3-0.2,0.2c0,0-0.1,0-0.1,0c-0.2,0-0.5,0.1-0.7,0c-0.2-0.1-0.2-0.4-0.3-0.6 c0-0.1-0.1-0.2-0.2-0.2c-1,0-1.9,0-2.9,0c-0.2,0-0.2,0.1-0.3,0.2c-0.2,0.6-0.2,0.6-0.9,0.6C36.3,45.4,36.1,45.4,36,45.4z M39,43.5 c0.3,0,0.7,0,1,0c0.2,0,0.2,0,0.2-0.2c-0.3-0.9-0.6-1.7-0.9-2.6c0-0.1-0.1-0.2-0.3-0.2c-0.2,0-0.2,0.1-0.3,0.2 c-0.3,0.9-0.6,1.7-0.9,2.6c-0.1,0.2,0,0.2,0.2,0.2C38.3,43.5,38.7,43.5,39,43.5z"></path> <path class="st0" d="M92,45.4c-0.5,0-0.6,0-0.7-0.5c-0.1-0.3-0.2-0.4-0.5-0.4c-0.9,0-1.7,0-2.6,0c-0.2,0-0.3,0-0.4,0.3 c-0.2,0.6-0.2,0.6-0.8,0.6c-0.5,0-0.5,0-0.3-0.5c0.6-1.5,1.1-3.1,1.7-4.6c0.3-0.7,0.9-1,1.6-0.8c0.3,0.1,0.6,0.3,0.7,0.6 c0.6,1.7,1.2,3.4,1.8,5.1c0.1,0.2,0,0.2-0.1,0.2C92.2,45.4,92.1,45.4,92,45.4z M89.5,43.5c0.3,0,0.7,0,1,0c0.1,0,0.2,0,0.1-0.2 c-0.3-0.9-0.6-1.8-0.9-2.6c0-0.1-0.1-0.2-0.2-0.2c-0.1,0-0.2,0.1-0.2,0.2c-0.3,0.9-0.6,1.8-0.9,2.7c-0.1,0.1,0,0.2,0.1,0.2 C88.8,43.5,89.2,43.5,89.5,43.5z"></path> <path class="st0" d="M72.8,39.4c0.5,0,0.5,0,0.7,0.5c0.5,1.4,1,2.8,1.5,4.2c0,0.1,0.1,0.3,0.3,0.3c0.2,0,0.2-0.2,0.3-0.3 c0.5-1.5,1-2.9,1.5-4.4c0.1-0.2,0.2-0.3,0.4-0.3c0.2,0,0.4,0,0.6,0c0.2,0,0.2,0.1,0.2,0.2c-0.4,1-0.7,2-1.1,3 c-0.2,0.6-0.4,1.3-0.7,1.9c-0.2,0.6-0.6,0.8-1.2,0.8c-0.6,0-1-0.3-1.2-0.8c-0.6-1.6-1.2-3.3-1.7-4.9c-0.1-0.3-0.1-0.3,0.2-0.3 C72.6,39.4,72.7,39.4,72.8,39.4z"></path> <path class="st0" d="M43.9,43c0,0.7,0,1.5,0,2.2c0,0.2,0,0.2-0.2,0.3c-0.8,0-0.8,0-0.8-0.8c0-1.3,0-2.6,0-3.9 c0-0.2-0.1-0.3-0.3-0.3c-0.3,0-0.6,0-1,0c-0.2,0-0.2-0.1-0.2-0.2c0-0.2,0-0.4,0-0.6c0-0.2,0.1-0.2,0.2-0.2c1.1,0,2.3,0,3.4,0 c0.2,0,0.3,0.1,0.3,0.3c0,0.3,0.1,0.6-0.1,0.8c-0.2,0.1-0.5,0-0.7,0c-0.6,0-0.6,0-0.6,0.6C43.9,41.7,43.9,42.3,43.9,43z"></path> <path class="st0" d="M0.6,42.4c0-0.9,0-1.8,0-2.7c0-0.2,0-0.3,0.3-0.3c0.8,0,0.8,0,0.8,0.8c0,1.6,0,3.3,0,4.9 c0,0.2-0.1,0.3-0.3,0.3c-0.8,0-0.8,0-0.8-0.8C0.6,43.9,0.6,43.2,0.6,42.4z"></path> <path class="st0" d="M47,42.4c0,0.9,0,1.8,0,2.7c0,0.2,0,0.3-0.3,0.3c-0.2,0-0.6,0.1-0.7-0.1c-0.2-0.2-0.1-0.5-0.1-0.7 c0-1.6,0-3.3,0-4.9c0-0.2,0-0.3,0.3-0.3c0.2,0,0.6-0.1,0.7,0.1c0.2,0.2,0,0.5,0.1,0.7C47,40.9,47,41.7,47,42.4z"></path> <path class="st0" d="M79.9,42.4c0,0.9,0,1.8,0,2.7c0,0.2,0,0.2-0.2,0.3c-0.8,0-0.8,0-0.8-0.8c0-1.6,0-3.3,0-4.9 c0-0.2,0-0.3,0.3-0.3c0.8,0,0.8,0,0.8,0.8C79.9,40.9,79.9,41.7,79.9,42.4z"></path> <path class="st0" d="M22.7,42.4c0-0.9,0-1.8,0-2.7c0-0.3,0.1-0.3,0.3-0.3c0.2,0,0.3,0,0.5,0c0.2,0,0.2,0.1,0.2,0.2 c0,1.8,0,3.7,0,5.5c0,0.2-0.1,0.3-0.3,0.2c-0.2,0-0.4,0-0.6,0c-0.2,0-0.2-0.1-0.2-0.2C22.7,44.3,22.7,43.3,22.7,42.4z"></path> </g> <g id="Consultants"> <path class="st1" d="M91.3,47.4H1.5c-0.6,0-1,0.5-1,1v10.3c0,0.6,0.5,1,1,1h89.8c0.6,0,1-0.5,1-1V48.4 C92.3,47.8,91.9,47.4,91.3,47.4z M45.9,53.4c0-1,0-1.9,0-2.9c0-0.2,0-0.3,0.3-0.3c0.6,0,0.6,0,0.6,0.5c0,1.6,0,3.2,0,4.8 c0,0.2,0,0.3,0.3,0.3c0.5,0,1,0,1.5,0c0.2,0,0.3,0.1,0.3,0.3c0,0.5,0,0.5-0.5,0.5c-0.7,0-1.4,0-2,0c-0.2,0-0.3,0-0.3-0.3 C46,55.3,45.9,54.3,45.9,53.4z M37.6,50.4c0-0.1,0-0.2,0.2-0.2c0.6,0,0.6,0,0.6,0.6c0,1.1,0,2.3,0,3.4c0,0.2,0,0.3,0,0.5 c0.1,0.8,0.5,1.2,1.3,1.2c0.6,0,1.1-0.6,1.1-1.3c0-1.1,0-2.3,0-3.4c0-0.1,0-0.3,0-0.4c0-0.2-0.1-0.4,0-0.5c0.2-0.1,0.5,0,0.7,0 c0.1,0,0.1,0.1,0.1,0.2c0,0.7,0,1.4,0,2.1c0,0,0,0,0,0c0,0.6,0,1.3,0,1.9c0,0.9-0.3,1.6-1.2,1.9c-0.7,0.3-1.4,0.2-2-0.1 c-0.7-0.4-0.9-1-0.9-1.7C37.6,53.2,37.6,51.8,37.6,50.4z M8.6,57.3c0,0.1,0,0.2,0,0.3c0,0.1,0,0.1-0.1,0.1c-1,0-2,0.1-3-0.3 c-2.9-1.1-3-4.3-1.8-5.8c0.8-0.9,1.7-1.4,2.9-1.4c0.3,0,0.6,0,0.9,0c0,0,0,0,0,0c0.3,0,0.6,0,0.9,0c0.2,0,0.2,0,0.2,0.2 c0,0.5,0,0.5-0.5,0.5c-0.7,0-1.3-0.1-2,0.1c-1.5,0.4-2.3,1.4-2.3,3c0,1.4,1,2.6,2.4,2.9C6.9,57,7.6,57,8.3,57 C8.6,57,8.7,57,8.6,57.3z M8.1,52.1c-0.5,0-1,0-1.5,0c-1,0.2-1.6,1-1.5,2c0.1,0.9,0.8,1.6,1.7,1.6c0.5,0,1,0,1.5,0 c0.2,0,0.3,0,0.3,0.3c0,0.5,0,0.5-0.5,0.5c-0.2,0-0.4,0-0.6,0c-0.5,0-0.9,0-1.4-0.1c-1.3-0.4-2-1.3-1.9-2.6c0-1.2,0.9-2.1,2.1-2.4 c0.7-0.1,1.4,0,2.1-0.1c0.1,0,0.1,0,0.1,0.1C8.7,52.1,8.7,52.1,8.1,52.1z M17,56.8c-1,0.8-2.1,1-3.4,0.9c-1.2-0.1-2.1-0.5-2.9-1.5 c-0.9-1.1-1.1-2.4-0.6-3.8c0.5-1.3,1.6-2,2.9-2.3c0.4-0.1,0.7-0.1,1.2-0.1c1,0,1.9,0.2,2.8,0.9C18.9,52.5,18.9,55.4,17,56.8z M21.1,51C20.9,51,21,51.2,21,51.4c0,2,0,4,0,6.1c0,0.3-0.1,0.3-0.3,0.3c-0.5,0-0.5,0-0.5-0.5c0-2,0-4,0-6c0-0.6,0.3-1,0.7-1 c0.5-0.1,0.9,0,1.3,0.4c0.2,0.2,0.4,0.5,0.6,0.7c0.8,0.9,1.5,1.8,2.3,2.8c0-0.9,0-1.7,0-2.5c0-0.4,0-0.8,0-1.2 c0-0.1,0-0.2,0.2-0.2c0.6,0,0.6,0,0.6,0.6c0,1.7,0,3.4,0,5.1c0,0.1,0,0.2,0,0.4c-0.5-0.6-1-1.1-1.4-1.7c-0.9-1.1-1.8-2.2-2.8-3.3 c0,0-0.1-0.1-0.1-0.1C21.4,51,21.3,50.9,21.1,51z M26.6,57.8c-0.4,0.2-1,0-1.4-0.4c-0.6-0.7-1.2-1.5-1.9-2.2 c-0.3-0.4-0.7-0.8-1.1-1.3c0,0.3,0,0.5,0,0.7c0,1,0,1.9,0,2.9c0,0.2,0,0.3-0.3,0.3c-0.6,0-0.6,0-0.6-0.6c0-1.7,0-3.4,0-5.1 c0-0.1,0-0.2,0-0.3c0.1,0,0.2,0.1,0.2,0.2c1.3,1.6,2.7,3.1,4,4.7c0.1,0.1,0.2,0.2,0.3,0.3c0.1,0.1,0.2,0.2,0.3,0.1 c0.1,0,0.1-0.2,0.1-0.3c0-0.2,0-0.3,0-0.5c0-1.9,0-3.9,0-5.8c0-0.2,0.1-0.3,0.3-0.3c0.5,0,0.5,0,0.5,0.5c0,1.9,0,3.9,0,5.8 c0,0,0,0.1,0,0.1C27.2,57.1,27.1,57.6,26.6,57.8z M32.5,54.8c-0.2-0.1-0.5-0.1-0.8-0.1c-0.4,0-0.8,0-1.2-0.1 c-1.2-0.3-1.8-1.1-1.8-2.3c0-1,0.8-1.8,1.9-2c0.6-0.1,1.3,0,1.8-0.1c0.6,0,1.1,0,1.7,0c0.1,0,0.2,0,0.2,0.2c0,0.6,0,0.6-0.5,0.6 c-0.8,0-1.6,0-2.4,0c-0.4,0-0.8,0.1-1.2,0.3c-0.8,0.5-0.9,1.7-0.1,2.3c0.4,0.3,1,0.4,1.5,0.4c0.6,0,1.1,0.1,1.5,0.4 c0.6,0.5,0.6,1.3,0,1.8c-0.3,0.2-0.7,0.4-1,0.4c-1,0-2.1,0-3.1,0c-0.1,0-0.2,0-0.2-0.2c-0.1-0.6-0.1-0.6,0.5-0.6 c0.8,0,1.6,0,2.4,0c0.2,0,0.5,0,0.7-0.2C32.9,55.4,32.9,55,32.5,54.8z M33.2,57.5c-0.4,0.2-0.8,0.2-1.3,0.2c-0.4,0-0.9,0-1.3,0 c-0.5,0-1,0-1.4,0c-0.2,0-0.3,0-0.3-0.3c0-0.5,0-0.5,0.5-0.5c1,0,1.9,0.1,2.9,0c0.7-0.1,1.3-0.4,1.6-1.1c0.3-0.9-0.2-1.9-1.2-2.2 c-0.4-0.1-0.8-0.1-1.2-0.1c-0.3,0-0.6,0-0.8-0.2C30,52.9,30,52,30.6,51.6c0.2-0.1,0.5-0.2,0.7-0.2c0.9,0,1.9,0,2.8,0 c0.2,0,0.2,0.1,0.2,0.2c0,0.5,0,0.5-0.5,0.5c-0.8,0-1.5,0-2.3,0c-0.1,0-0.2,0-0.3,0c-0.1,0-0.2,0.1-0.2,0.3c0,0.1,0.1,0.2,0.2,0.3 c0.2,0.1,0.4,0,0.6,0c0.5,0,1,0.1,1.4,0.3c1,0.4,1.6,1.3,1.6,2.3C34.8,56.3,34.2,57.1,33.2,57.5z M43,55c0,0.4-0.1,0.8-0.3,1.1 c-0.3,0.9-1,1.3-1.9,1.5c-0.8,0.2-1.6,0.2-2.4,0c-1.3-0.3-1.9-1-2.1-2.3c0-0.3-0.1-0.6-0.1-1c0-1.3,0-2.6,0-3.9 c0-0.2,0-0.3,0.2-0.3c0.6,0,0.6,0,0.6,0.6c0,1.2,0,2.4,0,3.6c0,0.3,0,0.7,0.1,1c0.2,0.8,0.7,1.3,1.5,1.5c0.6,0.1,1.2,0.2,1.7,0 c1.1-0.2,1.7-0.9,1.7-2.1c0-0.7,0-1.5,0-2.2c0,0,0,0,0,0c0-0.7,0-1.5,0-2.2c0-0.2,0-0.3,0.3-0.3c0.6,0,0.6,0,0.6,0.6 C43,52.1,43.1,53.6,43,55z M48.3,57.7c-1.1,0-2.2,0-3.4,0c-0.2,0-0.3-0.1-0.3-0.3c0-1.2,0-2.3,0-3.5c0-1.2,0-2.3,0-3.5 c0-0.2,0-0.3,0.3-0.3c0.6,0,0.6,0,0.6,0.6c0,1.9,0,3.9,0,5.8c0,0.4,0,0.4,0.4,0.4c0.9,0,1.7,0,2.6,0c0.2,0,0.3,0.1,0.3,0.3 C48.8,57.7,48.8,57.7,48.3,57.7z M52.5,57.7c-0.6,0-0.6,0-0.6-0.6c0-1.6,0-3.2,0-4.8c0-0.2-0.1-0.3-0.3-0.3c-0.5,0-0.9,0-1.4,0 c-0.1,0-0.2,0-0.2-0.2c0-0.6,0-0.6,0.5-0.6c0.6,0,1.3,0,1.9,0c0.2,0,0.2,0.1,0.2,0.2c0,1,0,2,0,3c0,1,0,1.9,0,2.9 C52.8,57.7,52.8,57.8,52.5,57.7z M55.5,52.1c-0.4,0-0.8,0-1.2,0c-0.2,0-0.2,0.1-0.2,0.2c0,0.9,0,1.7,0,2.6c0,0.9,0,1.7,0,2.6 c0,0.2,0,0.3-0.3,0.3c-0.6,0-0.6,0-0.6-0.6c0-1.8,0-3.7,0-5.5c0-0.2,0.1-0.3,0.3-0.3c0.7,0,1.4,0,2.1,0c0.2,0,0.3,0,0.3,0.3 C55.9,52.1,55.9,52.1,55.5,52.1z M55.9,50.7c0,0.2-0.1,0.2-0.2,0.2c-0.9,0-1.8,0-2.7,0c-0.9,0-1.8,0-2.6,0c-0.2,0-0.3-0.1-0.3-0.3 c0-0.5,0-0.5,0.5-0.5c1.7,0,3.4,0,5.1,0c0.3,0,0.4,0.1,0.3,0.3C55.9,50.6,55.9,50.6,55.9,50.7z M64.9,56.5c0,0.3,0,0.6,0,1 c0,0.2-0.1,0.3-0.2,0.2c0,0-0.1,0-0.1,0c-0.4,0-0.5,0-0.5-0.5c0-0.2,0-0.2-0.2-0.2c-1.1,0-2.3,0-3.4,0c-0.1,0-0.2,0-0.3,0.1 c-0.7,0.6-0.7,0.6-1.8,0.5c0.5-0.5,1-0.9,1.5-1.4c0.1-0.1,0.2,0,0.2,0c1.5,0,3,0,4.6,0C64.8,56.3,64.9,56.3,64.9,56.5z M64.9,54.5 c0,0.4,0,0.8,0,1.2c0,0.1,0,0.2-0.1,0.2c-1.4,0-2.9,0-4.3-0.1c1.5-1.3,2.9-2.7,4.5-4.1C64.9,52.7,64.9,53.6,64.9,54.5z M65.9,57.7 c-0.6,0-0.6,0-0.6-0.6c0-1.9,0-3.9,0-5.8c0-0.1,0.1-0.3-0.1-0.4c-0.2-0.1-0.3,0.1-0.5,0.2c-1,0.9-2,1.9-3.1,2.8 c-1.3,1.2-2.6,2.4-3.8,3.6c-0.2,0.2-0.4,0.3-0.6,0.2c-0.2,0-0.5,0-0.8,0c0.7-0.6,1.3-1.2,1.9-1.8c1.9-1.7,3.7-3.4,5.6-5.2 c0.3-0.3,0.7-0.6,1.2-0.6c0.6,0,1,0.3,1,1c0,1,0,2,0,3.1c0,1.1,0,2.2,0,3.3C66.1,57.7,66.1,57.7,65.9,57.7z M68.9,50.9 c-0.2,0.1-0.1,0.2-0.1,0.4c0,2,0,4.1,0,6.1c0,0.2-0.1,0.3-0.3,0.3c-0.5,0-0.5,0-0.5-0.5c0-2,0-3.9,0-5.9c0-0.5,0.1-0.9,0.6-1.1 c0.5-0.2,1.1,0,1.4,0.4c0.5,0.5,0.9,1.1,1.4,1.7c0.5,0.6,1,1.1,1.4,1.7c0,0,0,0,0.1,0c0-0.7,0-1.4,0-2.1c0-0.4,0-0.8,0-1.2 c0-0.4,0-0.4,0.4-0.4c0.4,0,0.4,0,0.4,0.4c0,1.8,0,3.5,0,5.3c0,0.1,0,0.2,0,0.4c-0.4-0.5-0.8-0.9-1.2-1.4c-1-1.2-2-2.4-3.1-3.6 c0-0.1-0.1-0.1-0.1-0.1C69.1,51,69,50.9,68.9,50.9z M74.4,57.8c-0.4,0.2-1,0-1.4-0.4c-0.8-0.9-1.5-1.8-2.2-2.6 c-0.2-0.3-0.4-0.5-0.7-0.8c-0.1,0.1,0,0.2,0,0.3c0,1.1,0,2.2,0,3.3c0,0.2,0,0.3-0.3,0.3c-0.6,0-0.6,0-0.6-0.6c0-1.8,0-3.6,0-5.5 c0.7,0.8,1.3,1.5,1.9,2.2c0.8,0.9,1.6,1.9,2.4,2.8c0.1,0.1,0.2,0.3,0.4,0.3c0.2-0.1,0.2-0.3,0.2-0.5c0-1.3,0-2.6,0-3.9 c0-0.8,0-1.5,0-2.3c0-0.2,0.1-0.2,0.2-0.2c0.6,0,0.6,0,0.6,0.6c0,2,0,3.9,0,5.9C74.9,57.1,74.9,57.5,74.4,57.8z M79,57.7 c-0.5,0-0.5,0-0.5-0.6c0-1.6,0-3.2,0-4.8c0-0.2,0-0.3-0.3-0.3c-0.5,0-0.9,0-1.4,0c-0.2,0-0.2,0-0.2-0.2c0-0.5,0-0.5,0.5-0.5 c0.6,0,1.3,0,1.9,0c0.2,0,0.2,0.1,0.2,0.2c0,1,0,2,0,3c0,1,0,1.9,0,2.9C79.3,57.7,79.2,57.8,79,57.7z M81.9,52.1 c-0.4,0-0.7,0-1.1,0c-0.2,0-0.3,0-0.3,0.3c0,1.7,0,3.3,0,5c0,0.1,0.1,0.3-0.1,0.4c-0.2,0-0.5,0-0.7,0c-0.1,0,0-0.2,0-0.2 c0-1,0-2,0-2.9c0-1,0-1.9,0-2.9c0-0.2,0-0.3,0.3-0.3c0.7,0,1.4,0,2.2,0c0.2,0,0.3,0,0.3,0.3C82.4,52.1,82.4,52.1,81.9,52.1z M81.9,50.9c-1.7,0-3.4,0-5.1,0c-0.2,0-0.3-0.1-0.3-0.3c0-0.5,0-0.5,0.5-0.5c0.8,0,1.7,0,2.5,0c0.9,0,1.7,0,2.6,0 c0.2,0,0.3,0,0.3,0.3C82.4,50.9,82.4,50.9,81.9,50.9z M83.8,52.3c0-1,0.8-1.8,1.9-2c0.6-0.1,1.3,0,1.8-0.1c0.6,0,1.1,0,1.6,0 c0.2,0,0.3,0,0.3,0.3c0,0.5,0,0.5-0.5,0.5c-0.8,0-1.6,0-2.5,0c-0.4,0-0.8,0.1-1.2,0.3c-0.8,0.5-0.8,1.7,0,2.3 c0.3,0.2,0.7,0.4,1.1,0.4c0.4,0,0.7,0,1.1,0.1c0.4,0.1,0.7,0.2,1,0.5c0.4,0.5,0.3,1.2-0.2,1.6c-0.3,0.3-0.7,0.4-1.1,0.4 c-1,0-1.9,0-2.9,0c-0.2,0-0.2-0.1-0.2-0.2c0-0.5,0-0.5,0.5-0.5c0.8,0,1.6,0,2.4,0c0.2,0,0.5,0,0.7-0.1c0.2-0.1,0.3-0.2,0.3-0.4 c0-0.2-0.1-0.3-0.3-0.4c-0.2-0.1-0.5-0.1-0.7-0.1c-0.4,0-0.9,0-1.3-0.1C84.4,54.2,83.7,53.4,83.8,52.3z M88.9,57.1 c-0.6,0.4-1.3,0.6-2,0.6c-0.4,0-0.9,0-1.3,0c-0.5,0-1,0-1.4,0c-0.2,0-0.3,0-0.3-0.2c0-0.5,0-0.5,0.5-0.5c1,0,1.9,0.1,2.9,0 c0.3,0,0.7-0.2,0.9-0.3c1-0.7,1-2.1-0.1-2.7c-0.4-0.2-0.8-0.3-1.2-0.3c-0.3,0-0.6,0-0.8,0c-0.7-0.1-1-0.5-1-1.1c0-0.5,0.5-1,1.1-1 c1,0,1.9,0,2.9,0c0.1,0,0.2,0,0.2,0.2c0,0.6,0,0.6-0.5,0.6c-0.7,0-1.5,0-2.2,0c-0.1,0-0.2,0-0.2,0c-0.2,0-0.4,0.1-0.4,0.3 c0,0.2,0.2,0.3,0.3,0.3c0.2,0,0.4,0,0.7,0c0.8,0,1.5,0.3,2.1,0.8C90.1,54.6,90,56.3,88.9,57.1z"></path> <path class="st2" d="M17.1,51c-0.8-0.7-1.8-0.9-2.8-0.9c-0.4,0-0.8,0-1.2,0.1c-1.4,0.3-2.4,0.9-2.9,2.3c-0.5,1.3-0.3,2.6,0.6,3.8 c0.7,0.9,1.7,1.4,2.9,1.5c1.2,0.1,2.4-0.1,3.4-0.9C18.9,55.4,18.9,52.5,17.1,51z M16.6,56.1c-1.3,1.2-3.7,1.2-5-0.1 c-0.9-0.9-1.1-1.9-0.8-3.1c0.3-1.1,1.2-1.7,2.3-2c0.3-0.1,0.7-0.1,1-0.1c0.8,0,1.5,0.1,2.2,0.6C17.9,52.6,18,54.9,16.6,56.1z"></path> <path class="st2" d="M27.1,56.5c0-1.9,0-3.9,0-5.8c0-0.5,0-0.5-0.5-0.5c-0.2,0-0.3,0.1-0.3,0.3c0,1.9,0,3.9,0,5.8 c0,0.2,0,0.3,0,0.5c0,0.1,0,0.2-0.1,0.3c-0.1,0.1-0.2-0.1-0.3-0.1c-0.1-0.1-0.2-0.2-0.3-0.3c-1.3-1.6-2.7-3.1-4-4.7 c-0.1-0.1-0.1-0.2-0.2-0.2c0,0.1,0,0.2,0,0.3c0,1.7,0,3.4,0,5.1c0,0.6,0,0.6,0.6,0.6c0.2,0,0.3-0.1,0.3-0.3c0-1,0-1.9,0-2.9 c0-0.2,0-0.4,0-0.7c0.4,0.5,0.7,0.9,1.1,1.3c0.6,0.7,1.2,1.5,1.9,2.2c0.4,0.4,0.9,0.6,1.4,0.4c0.5-0.2,0.6-0.7,0.6-1.1 C27.1,56.6,27.1,56.5,27.1,56.5z"></path> <path class="st2" d="M74.9,50.7c0-0.6,0-0.6-0.6-0.6c-0.2,0-0.2,0.1-0.2,0.2c0,0.8,0,1.5,0,2.3c0,1.3,0,2.6,0,3.9 c0,0.2,0,0.4-0.2,0.5c-0.2,0.1-0.3-0.1-0.4-0.3c-0.8-0.9-1.6-1.9-2.4-2.8c-0.6-0.7-1.2-1.4-1.9-2.2c0,1.9,0,3.7,0,5.5 c0,0.6,0,0.6,0.6,0.6c0.2,0,0.3-0.1,0.3-0.3c0-1.1,0-2.2,0-3.3c0-0.1,0-0.2,0-0.3c0.2,0.3,0.5,0.5,0.7,0.8 c0.7,0.9,1.5,1.8,2.2,2.6c0.4,0.4,1,0.6,1.4,0.4c0.5-0.2,0.6-0.7,0.6-1.1C74.9,54.7,74.9,52.7,74.9,50.7z"></path> <path class="st2" d="M43.1,50.7c0-0.6,0-0.6-0.6-0.6c-0.2,0-0.3,0.1-0.3,0.3c0,0.7,0,1.5,0,2.2c0,0,0,0,0,0c0,0.7,0,1.5,0,2.2 c-0.1,1.2-0.6,1.9-1.7,2.1c-0.6,0.1-1.2,0.1-1.7,0c-0.8-0.2-1.3-0.7-1.5-1.5c-0.1-0.3-0.1-0.6-0.1-1c0-1.2,0-2.4,0-3.6 c0-0.6,0-0.6-0.6-0.6c-0.2,0-0.2,0.1-0.2,0.3c0,1.3,0,2.6,0,3.9c0,0.3,0,0.6,0.1,1c0.2,1.3,0.9,2.1,2.1,2.3c0.8,0.2,1.6,0.2,2.4,0 c0.9-0.2,1.6-0.7,1.9-1.5c0.1-0.4,0.2-0.7,0.3-1.1C43.1,53.6,43,52.1,43.1,50.7z"></path> <path class="st2" d="M69.4,51.2c1,1.2,2,2.4,3.1,3.6c0.4,0.4,0.7,0.9,1.2,1.4c0-0.2,0-0.3,0-0.4c0-1.8,0-3.5,0-5.3 c0-0.4,0.1-0.4-0.4-0.4c-0.4,0-0.4,0-0.4,0.4c0,0.4,0,0.8,0,1.2c0,0.7,0,1.4,0,2.1c0,0,0,0-0.1,0c-0.5-0.6-1-1.1-1.4-1.7 c-0.5-0.6-0.9-1.1-1.4-1.7c-0.4-0.4-1-0.6-1.4-0.4c-0.5,0.2-0.6,0.6-0.6,1.1c0,2,0,3.9,0,5.9c0,0.5,0,0.5,0.5,0.5 c0.2,0,0.3-0.1,0.3-0.3c0-2,0-4.1,0-6.1c0-0.1-0.1-0.3,0.1-0.4c0.2-0.1,0.3,0,0.4,0.1C69.3,51.1,69.4,51.2,69.4,51.2z"></path> <path class="st2" d="M21.7,51.3c0.9,1.1,1.8,2.2,2.8,3.3c0.5,0.5,0.9,1.1,1.4,1.7c0-0.2,0-0.3,0-0.4c0-1.7,0-3.4,0-5.1 c0-0.6,0-0.6-0.6-0.6c-0.1,0-0.2,0.1-0.2,0.2c0,0.4,0,0.8,0,1.2c0,0.8,0,1.6,0,2.5c-0.8-1-1.6-1.9-2.3-2.8 c-0.2-0.2-0.4-0.5-0.6-0.7c-0.3-0.4-0.8-0.5-1.3-0.4c-0.5,0.1-0.7,0.5-0.7,1c0,2,0,4,0,6c0,0.5,0,0.5,0.5,0.5 c0.3,0,0.3-0.1,0.3-0.3c0-2,0-4,0-6.1c0-0.1-0.1-0.3,0.1-0.4c0.2-0.1,0.3,0.1,0.5,0.2C21.6,51.2,21.6,51.2,21.7,51.3z"></path> <path class="st2" d="M66.1,54.2c0-1,0-2,0-3.1c0-0.6-0.4-1-1-1c-0.5,0-0.9,0.3-1.2,0.6c-1.9,1.7-3.7,3.4-5.6,5.2 c-0.6,0.6-1.2,1.2-1.9,1.8c0.3,0,0.5,0,0.8,0c0.3,0,0.4-0.1,0.6-0.2c1.3-1.2,2.6-2.4,3.8-3.6c1-0.9,2-1.9,3.1-2.8 c0.1-0.1,0.3-0.3,0.5-0.2c0.2,0.1,0.1,0.3,0.1,0.4c0,1.9,0,3.9,0,5.8c0,0.6,0,0.6,0.6,0.6c0.2,0,0.3-0.1,0.3-0.3 C66.1,56.4,66.1,55.3,66.1,54.2z"></path> <path class="st2" d="M32.5,55.6c-0.2,0.1-0.4,0.2-0.7,0.2c-0.8,0-1.6,0-2.4,0c-0.6,0-0.6,0-0.5,0.6c0,0.1,0.1,0.2,0.2,0.2 c1,0,2.1,0,3.1,0c0.4,0,0.7-0.2,1-0.4c0.6-0.5,0.6-1.3,0-1.8c-0.5-0.3-1-0.4-1.5-0.4c-0.5,0-1-0.1-1.5-0.4 c-0.8-0.6-0.8-1.8,0.1-2.3c0.4-0.2,0.7-0.3,1.2-0.3c0.8,0,1.6,0,2.4,0c0.6,0,0.5,0,0.5-0.6c0-0.2-0.1-0.2-0.2-0.2 c-0.5,0-1,0-1.7,0c-0.5,0-1.2-0.1-1.8,0.1c-1.1,0.2-1.9,1-1.9,2c0,1.1,0.6,2,1.8,2.3c0.4,0.1,0.8,0.1,1.2,0.1c0.3,0,0.5,0,0.8,0.1 C32.9,55,32.9,55.4,32.5,55.6z"></path> <path class="st2" d="M85.5,54.6c0.4,0.1,0.8,0.1,1.3,0.1c0.3,0,0.5,0,0.7,0.1c0.2,0.1,0.3,0.2,0.3,0.4c0,0.2-0.1,0.3-0.3,0.4 c-0.2,0.1-0.4,0.1-0.7,0.1c-0.8,0-1.6,0-2.4,0c-0.5,0-0.5,0-0.5,0.5c0,0.2,0,0.2,0.2,0.2c1,0,1.9,0,2.9,0c0.4,0,0.8-0.1,1.1-0.4 c0.5-0.4,0.6-1.2,0.2-1.6c-0.3-0.3-0.6-0.5-1-0.5c-0.4-0.1-0.7,0-1.1-0.1c-0.4,0-0.8-0.1-1.1-0.4c-0.8-0.6-0.8-1.7,0-2.3 c0.4-0.2,0.8-0.3,1.2-0.3c0.8,0,1.6,0,2.5,0c0.5,0,0.5,0,0.5-0.5c0-0.2-0.1-0.3-0.3-0.3c-0.5,0-1,0-1.6,0c-0.5,0-1.2-0.1-1.8,0.1 c-1.1,0.2-1.9,1-1.9,2C83.7,53.4,84.4,54.2,85.5,54.6z"></path> <path class="st2" d="M87,52.7c-0.2,0-0.4,0-0.7,0c-0.2,0-0.3-0.1-0.3-0.3c0-0.2,0.2-0.3,0.4-0.3c0.1,0,0.2,0,0.2,0 c0.7,0,1.5,0,2.2,0c0.6,0,0.6,0,0.5-0.6c0-0.1,0-0.2-0.2-0.2c-1,0-1.9,0-2.9,0c-0.6,0-1.1,0.5-1.1,1c0,0.6,0.3,1,1,1.1 c0.3,0.1,0.6,0,0.8,0c0.4,0,0.8,0.1,1.2,0.3c1,0.7,1.1,2.1,0.1,2.7c-0.3,0.2-0.6,0.3-0.9,0.3c-1,0.1-1.9,0-2.9,0 c-0.5,0-0.5,0-0.5,0.5c0,0.2,0.1,0.2,0.3,0.2c0.5,0,1,0,1.4,0c0.4,0,0.9,0,1.3,0c0.7,0,1.4-0.2,2-0.6c1.1-0.8,1.2-2.5,0.2-3.5 C88.6,53,87.8,52.8,87,52.7z"></path> <path class="st2" d="M33.2,53c-0.5-0.2-0.9-0.3-1.4-0.3c-0.2,0-0.4,0-0.6,0c-0.1,0-0.2-0.1-0.2-0.3c0-0.2,0.1-0.3,0.2-0.3 c0.1,0,0.2,0,0.3,0c0.8,0,1.5,0,2.3,0c0.5,0,0.5,0,0.5-0.5c0-0.2,0-0.2-0.2-0.2c-0.9,0-1.9,0-2.8,0c-0.3,0-0.5,0.1-0.7,0.2 C30,52,30,52.9,30.7,53.3c0.3,0.1,0.5,0.2,0.8,0.2c0.4,0,0.8,0,1.2,0.1c1,0.3,1.5,1.3,1.2,2.2c-0.3,0.7-0.9,1-1.6,1.1 c-1,0.1-1.9,0-2.9,0c-0.5,0-0.5,0-0.5,0.5c0,0.2,0.1,0.3,0.3,0.3c0.5,0,1,0,1.4,0c0.4,0,0.9,0,1.3,0c0.4,0,0.9-0.1,1.3-0.2 c1-0.4,1.6-1.2,1.6-2.2C34.8,54.3,34.2,53.4,33.2,53z"></path> <path class="st2" d="M37.6,54.6c0,0.7,0.2,1.4,0.9,1.7c0.7,0.3,1.4,0.4,2,0.1c0.8-0.4,1.2-1.1,1.2-1.9c0-0.6,0-1.3,0-1.9 c0,0,0,0,0,0c0-0.7,0-1.4,0-2.1c0-0.1,0.1-0.2-0.1-0.2c-0.2,0-0.5-0.1-0.7,0c-0.1,0.1,0,0.3,0,0.5c0,0.1,0,0.3,0,0.4 c0,1.1,0,2.3,0,3.4c0,0.7-0.5,1.3-1.1,1.3c-0.8,0-1.2-0.3-1.3-1.2c0-0.2,0-0.3,0-0.5c0-1.1,0-2.3,0-3.4c0-0.6,0-0.6-0.6-0.6 c-0.1,0-0.2,0.1-0.2,0.2C37.6,51.8,37.6,53.2,37.6,54.6z"></path> <path class="st2" d="M8.3,57c-0.7,0-1.4,0.1-2.1-0.1c-1.4-0.3-2.4-1.5-2.4-2.9c0-1.5,0.8-2.6,2.3-3c0.7-0.2,1.3-0.1,2-0.1 c0.5,0,0.5,0,0.5-0.5c0-0.2-0.1-0.2-0.2-0.2c-0.3,0-0.6,0-0.9,0c0,0,0,0,0,0c-0.3,0-0.6,0-0.9,0c-1.2,0.1-2.2,0.5-2.9,1.4 c-1.2,1.5-1.1,4.8,1.8,5.8c1,0.4,2,0.3,3,0.3c0.1,0,0.1,0,0.1-0.1c0-0.1,0-0.2,0-0.3C8.7,57,8.6,57,8.3,57z"></path> <path class="st2" d="M48.5,57c-0.9,0-1.7,0-2.6,0c-0.4,0-0.4,0-0.4-0.4c0-1.9,0-3.9,0-5.8c0-0.6,0-0.6-0.6-0.6 c-0.2,0-0.3,0.1-0.3,0.3c0,1.2,0,2.3,0,3.5c0,1.2,0,2.3,0,3.5c0,0.2,0.1,0.3,0.3,0.3c1.1,0,2.2,0,3.4,0c0.5,0,0.5,0,0.5-0.5 C48.8,57,48.7,57,48.5,57z"></path> <path class="st2" d="M64.7,55.9c0.1,0,0.2-0.1,0.1-0.2c0-0.4,0-0.8,0-1.2c0-0.9,0-1.8,0-2.8c-1.5,1.4-3,2.7-4.5,4.1 C61.8,55.9,63.3,55.9,64.7,55.9z M64,54.9c0,0.1,0,0.2-0.2,0.2c-0.5,0-1,0-1.5-0.1c0.5-0.5,1.1-1,1.6-1.5C64,54.1,64,54.5,64,54.9 z"></path> <path class="st2" d="M8.5,51.3c-0.7,0-1.4-0.1-2.1,0.1c-1.2,0.2-2.1,1.2-2.1,2.4c-0.1,1.3,0.6,2.3,1.9,2.6 c0.4,0.1,0.9,0.1,1.4,0.1c0.2,0,0.4,0,0.6,0c0.5,0,0.5,0,0.5-0.5c0-0.2-0.1-0.3-0.3-0.3c-0.5,0-1,0-1.5,0c-0.9,0-1.7-0.7-1.7-1.6 c-0.1-1,0.5-1.8,1.5-2c0.5-0.1,1,0,1.5,0c0.6,0,0.6,0,0.5-0.6C8.6,51.4,8.6,51.3,8.5,51.3z"></path> <path class="st2" d="M46.3,56.5c0.7,0,1.4,0,2,0c0.5,0,0.5,0,0.5-0.5c0-0.2-0.1-0.3-0.3-0.3c-0.5,0-1,0-1.5,0 c-0.2,0-0.3-0.1-0.3-0.3c0-1.6,0-3.2,0-4.8c0-0.5,0-0.5-0.6-0.5c-0.2,0-0.3,0.1-0.3,0.3c0,1,0,1.9,0,2.9c0,1,0,1.9,0,2.9 C45.9,56.5,46,56.6,46.3,56.5z"></path> <path class="st2" d="M55.7,51.3c-0.7,0-1.4,0-2.1,0c-0.2,0-0.3,0.1-0.3,0.3c0,1.8,0,3.7,0,5.5c0,0.6,0,0.6,0.6,0.6 c0.2,0,0.3-0.1,0.3-0.3c0-0.9,0-1.7,0-2.6c0-0.9,0-1.7,0-2.6c0-0.2,0-0.2,0.2-0.2c0.4,0,0.8,0,1.2,0c0.5,0,0.5,0,0.5-0.5 C56,51.4,55.9,51.3,55.7,51.3z"></path> <path class="st2" d="M52.8,54.6c0-1,0-2,0-3c0-0.2-0.1-0.2-0.2-0.2c-0.6,0-1.3,0-1.9,0c-0.6,0-0.5,0-0.5,0.6 c0,0.2,0.1,0.2,0.2,0.2c0.5,0,0.9,0,1.4,0c0.2,0,0.3,0.1,0.3,0.3c0,1.6,0,3.2,0,4.8c0,0.6,0,0.6,0.6,0.6c0.2,0,0.3-0.1,0.3-0.3 C52.8,56.5,52.8,55.5,52.8,54.6z"></path> <path class="st3" d="M82.1,51.3c-0.7,0-1.4,0-2.2,0c-0.2,0-0.3,0.1-0.3,0.3c0,1,0,1.9,0,2.9c0,1,0,2,0,2.9c0,0.1,0,0.2,0,0.2 c0.2,0,0.5,0.1,0.7,0c0.2,0,0.1-0.2,0.1-0.4c0-1.7,0-3.3,0-5c0-0.2,0.1-0.3,0.3-0.3c0.4,0,0.7,0,1.1,0c0.5,0,0.5,0,0.5-0.5 C82.4,51.4,82.3,51.3,82.1,51.3z"></path> <path class="st3" d="M79.2,54.5c0-1,0-2,0-3c0-0.2,0-0.2-0.2-0.2c-0.6,0-1.3,0-1.9,0c-0.5,0-0.5,0-0.5,0.5c0,0.2,0.1,0.2,0.2,0.2 c0.5,0,0.9,0,1.4,0c0.2,0,0.3,0.1,0.3,0.3c0,1.6,0,3.2,0,4.8c0,0.6,0,0.5,0.5,0.6c0.2,0,0.3-0.1,0.3-0.3 C79.2,56.5,79.2,55.5,79.2,54.5z"></path> <path class="st2" d="M64.6,56.3c-1.5,0-3,0-4.6,0c-0.1,0-0.2,0-0.2,0c-0.5,0.4-1,0.9-1.5,1.4c1,0.1,1,0.1,1.8-0.5 c0.1-0.1,0.2-0.1,0.3-0.1c1.1,0,2.3,0,3.4,0c0.2,0,0.2,0.1,0.2,0.2c0,0.5,0,0.5,0.5,0.5c0,0,0.1,0,0.1,0c0.2,0,0.3,0,0.2-0.2 c0-0.3,0-0.6,0-1C64.9,56.3,64.8,56.3,64.6,56.3z"></path> <path class="st2" d="M55.6,50.2c-1.7,0-3.4,0-5.1,0c-0.5,0-0.5,0-0.5,0.5c0,0.2,0.1,0.3,0.3,0.3c0.9,0,1.8,0,2.6,0 c0.9,0,1.8,0,2.7,0c0.2,0,0.3-0.1,0.2-0.2c0-0.1,0-0.1,0-0.2C56,50.2,55.9,50.2,55.6,50.2z"></path> <path class="st2" d="M82.1,50.2c-0.9,0-1.7,0-2.6,0c-0.8,0-1.7,0-2.5,0c-0.5,0-0.4,0-0.5,0.5c0,0.2,0.1,0.3,0.3,0.3 c1.7,0,3.4,0,5.1,0c0.5,0,0.5,0,0.5-0.5C82.4,50.2,82.3,50.2,82.1,50.2z"></path> <path class="st4" d="M16.4,51.5c-0.7-0.5-1.4-0.6-2.2-0.6c-0.4,0-0.7,0-1,0.1c-1.1,0.3-2,0.8-2.3,2c-0.3,1.2-0.1,2.2,0.8,3.1 c1.3,1.2,3.6,1.3,5,0.1C18,54.9,17.9,52.6,16.4,51.5z M17.1,54.6c-0.2,1.1-1,1.7-2,1.9c-0.3,0.1-0.6,0.1-0.8,0.1 c-1,0-1.8-0.2-2.4-0.9c-1.1-1.2-0.8-3.7,1.6-4.2c1-0.2,1.9-0.1,2.7,0.5C17,52.6,17.3,53.5,17.1,54.6z"></path> <path class="st4" d="M62.4,55c0.5,0.1,1,0.1,1.5,0.1c0.1,0,0.2-0.1,0.2-0.2c0-0.4,0-0.9,0-1.4C63.4,54.1,62.9,54.6,62.4,55z"></path> <path class="st2" d="M16.1,51.9c-0.8-0.6-1.8-0.7-2.7-0.5c-2.3,0.5-2.6,3-1.6,4.2c0.6,0.7,1.5,1,2.4,0.9c0.3,0,0.5,0,0.8-0.1 c1-0.2,1.8-0.8,2-1.9C17.3,53.5,17,52.6,16.1,51.9z M16.3,54.1c-0.1,0.9-0.8,1.6-1.7,1.7c-0.1,0-0.3,0-0.4,0c-0.3,0-0.5,0-0.8-0.1 c-0.8-0.2-1.3-0.9-1.3-1.7c0-0.8,0.5-1.5,1.3-1.8c0.5-0.2,1.1-0.2,1.6,0C15.9,52.4,16.4,53.2,16.3,54.1z"></path> <path class="st4" d="M15,52.2c-0.5-0.1-1.1-0.1-1.6,0c-0.8,0.3-1.3,1-1.3,1.8c0,0.8,0.5,1.4,1.3,1.7c0.3,0.1,0.5,0.1,0.8,0.1 c0.1,0,0.3,0,0.4,0c1-0.1,1.6-0.7,1.7-1.7C16.4,53.2,15.9,52.4,15,52.2z"></path> </g> <linearGradient id="SVGID_1_" gradientUnits="userSpaceOnUse" x1="6.145" y1="34.1003" x2="26.9062" y2="23.0668"> <stop offset="0" style="stop-color:#0C8AD0"></stop> <stop offset="0.25" style="stop-color:#0F75BE"></stop> <stop offset="0.5" style="stop-color:#196EB9"></stop> <stop offset="0.75" style="stop-color:#1F60AD"></stop> <stop offset="1" style="stop-color:#2C499A"></stop> </linearGradient> <path class="st5" d="M27.9,31.2c0.1-1.3-0.4-2.3-1.2-3.1c-0.2-0.2-0.5-0.5-0.7-0.7c-0.1-0.1-0.1-0.1-0.1-0.2 c0.1-0.3-0.2-0.6-0.2-0.9c0.3-0.1,0.1-0.5,0.3-0.7c0,0,0-0.1,0-0.1c-0.2-0.1-0.1-0.3-0.2-0.4c-0.1-0.2-0.3-0.3-0.4-0.5 c-0.1-0.1-0.3,0-0.3-0.1c0-0.1,0.2-0.1,0.3-0.2c0.1,0,0.1-0.1,0.2-0.1c0,0.1,0,0.2,0,0.3c0.6-0.5,1.1-1,1.7-1.5c0,0,0,0,0,0 c-0.7,0.2-1.4,0.4-2.1,0.7c0.1,0.1,0.2,0.1,0.3,0.2c-0.2,0.1-0.3,0.2-0.5,0.3c-0.2-0.2-0.1-0.5-0.3-0.7c-0.1-0.2-0.2-0.4-0.2-0.6 c0-0.3,0-0.7,0-1c0-0.6-0.2-1.1-0.6-1.6c0,0-0.1-0.1-0.1-0.1c-0.7-0.9-1.7-1.5-2.7-2c0,0-0.1-0.1-0.1-0.1c-1-0.6-2.2-1.1-3.1-2 c-0.2-0.2-0.4-0.4-0.6-0.7c-0.1-0.2-0.2-0.4-0.5-0.5c-0.1,0-0.1-0.1-0.2-0.2c-0.1-0.3-0.3-0.7-0.4-1c-0.1-0.2-0.1-0.4-0.3-0.5 c0,0.2,0.1,0.5,0.1,0.7c0.2,0.5,0.4,0.9,0.4,1.4c-0.2,0.4-0.3,0.9-0.4,1.3c-0.2,0.6-1.6,5.4-1.8,6.2c0,0.1,0,0,0.1,0.1 c0.2-0.7,1.7-5.8,1.9-6.6c0.1-0.2,0.1-0.5,0.2-0.7c0.5,0.6,1.1,1.1,1.8,1.5c0.8,0.5,1.7,1,2.4,1.6c0.4,0.3,0.7,0.6,1.1,0.9 c0.5,0.4,1,1,1.4,1.5c0.3,0.6,0.2,1.3,0.2,2c0,0.2,0,0.4,0,0.6c0,0.2,0.2,0.4,0.2,0.7c0.1,0.2,0,0.6-0.2,0.7 c-0.5,0.3-1,0.6-1.4,0.8c-1,0.6-2,1.1-3.1,1.7c-0.7,0.4-1.5,0.6-2.3,1c-0.7,0.3-1.4,0.5-2.1,0.7c-0.3,0.1-0.6,0.2-0.9,0.4 c0-0.2,0-0.3,0.1-0.4c0.2-0.2,0.4-0.4,0.7-0.5c0.1-0.1,0.3-0.2,0.1-0.4c-0.1,0-0.1-0.1-0.1-0.2c0,0,0-0.1,0-0.1 c-0.2-0.2-0.3-0.4-0.2-0.7c0,0-0.2-0.1-0.3-0.1c-0.2-0.1-0.3-0.2-0.3-0.4c0-0.2-0.2-0.3,0-0.5c0.1-0.1,0-0.2-0.1-0.3 c0.3-1.1,0.6-2.2,0.9-3.3c0,0-0.1,0-0.1-0.1c-0.1,0.4-0.2,0.8-0.4,1.2c-0.2,0.7-0.4,1.4-0.6,2c-0.9-0.6-2.4-0.1-2.8,0.8 c0,0.1-0.1,0.2-0.1,0.3c-0.1,1.1,0.4,1.9,1.1,2.6c0.1,0.1,0.2,0.2,0.3,0.4c0.1,0.2-0.1,0.3-0.2,0.4c-0.6,0.3-1.2,0.5-1.8,0.8 c-0.3,0.1-0.5,0.2-0.8,0.4c-0.7,0.3-1.3,0.6-2,1c-0.4,0.1-0.7,0.3-1,0.6c-0.6,0.5,0,1.6,0.5,1.7c0.1,0,0.2,0,0.3,0 c0.7-0.2,1.4-0.4,2.1-0.6c0.3-0.1,0.7-0.1,1-0.2c0.2,0,0.3,0,0.5,0.2c1.5,1.8,3.4,3.2,5.7,4c0.1,0,0.3,0.1,0.5,0.1 c0-0.4-0.1-0.7-0.2-1c-0.2-0.4-0.3-0.8-0.2-1.3c0-0.2,0-0.4,0-0.6c0-0.7-0.2-1.4,0.1-2.1c0.1-0.2,0.1-0.5,0.2-0.7 c2.6,1.1,5.1,2.1,7.7,3.2c0.9,0.4,1.9,0.8,2.8,1.2c0.2,0.4,0.4,0.7,0.6,1c0.1-0.2,0.1-0.3,0-0.4c-0.1-0.4-0.2-0.7-0.4-1 c-0.3-0.4-0.3-0.9-0.2-1.4C27.7,34,27.8,32.6,27.9,31.2z M22.2,26c0.5-0.3,1-0.6,1.5-0.8c0.1,0,0.2-0.1,0.3-0.1 c-0.5,0.4-1.1,0.8-1.6,1.1c-0.3,0.2-0.7,0.3-1,0.5c-0.1,0-0.2,0.1-0.3,0.1C21.5,26.4,21.8,26.2,22.2,26z M27.2,32.1 c-0.1,1.1-0.2,2.1-0.4,3.2c-0.1,0.5,0,1,0.2,1.5c-0.1,0.1-0.2,0-0.3,0c-1.8-0.8-3.7-1.5-5.5-2.3c-1.5-0.6-3-1.3-4.5-1.9 c0-0.3,0-0.6,0-0.9c0-0.2,0.1-0.3,0.2-0.4c0.2-0.2,0.5-0.3,0.8-0.4c0.4-0.2,0.9-0.4,1.3-0.6c1.3-0.6,2.7-1.2,3.8-2.2 c0.4-0.4,0.9-0.7,1.4-1c0.1-0.1,0.3-0.2,0.5-0.1c0,0,0,0.1,0,0.1c0,0.5,0.1,0.8,0.6,1c0.4,0.1,0.7,0.5,1,0.8c0,0,0,0,0,0 c0,0,0,0,0.1,0.1c0.1,0.2,0.2,0.3,0.3,0.5C27.3,30.1,27.3,31.1,27.2,32.1z"></path> <g id="VJC"> <linearGradient id="SVGID_2_" gradientUnits="userSpaceOnUse" x1="54.3943" y1="23.8262" x2="45.2542" y2="12.5098"> <stop offset="0" style="stop-color:#0C8AD0"></stop> <stop offset="0.25" style="stop-color:#0F75BE"></stop> <stop offset="0.5" style="stop-color:#196EB9"></stop> <stop offset="0.75" style="stop-color:#1F60AD"></stop> <stop offset="1" style="stop-color:#2C499A"></stop> </linearGradient> <path class="st6" d="M56.7,12.5c0,0.2-0.1,0.2-0.2,0.2c-0.7,0-1.4,0-2.1,0c0,0.1,0.1,0.2,0.1,0.3c0.5,0.7,0.8,1.4,1.1,2.1 c0.2,0.6,0.4,1.3,0.4,1.9c0,0,0,0,0,0.1c0,0,0,0.1,0,0.1c0.6,4.5-2.7,8.9-7.1,9.8c-2.2,0.4-4.3,0.2-6.3-0.9 c-0.1,0-0.1-0.1-0.2-0.1c-0.7-0.4-1.3-0.9-1.8-1.4c-0.6-0.5-1-1.1-1.4-1.8c-0.6-1-1-2.2-1.2-3.4c0-0.2,0-0.2,0.2-0.2 c1,0,2.1,0,3.1,0c0.1,0,0.2,0,0.2,0.1c0.1,0.5,0.3,1,0.5,1.5c0.3,0.5,0.6,1,1,1.4c0.1,0.1,0.3,0.3,0.5,0.4c0.7,0.5,1.4,0.8,2.2,1 c1,0.2,2,0.2,3-0.2c1.8-0.7,3-2,3.6-3.8c0-0.1,0-0.1,0.1-0.2c0.1-0.7,0.2-1.4,0.1-2.2c-0.2-0.8-0.5-1.6-0.9-2.3 c-0.7-0.9-1.5-1.6-2.6-2c-0.9-0.4-1.9-0.2-2.8-0.2c-0.6,0-0.6,0-0.6-0.6c0-1,0-2,0-3c0-0.2,0-0.2,0.2-0.2c3,0,6,0,9,0 c0,0,0.1,0,0.1,0c0.5,0,1.1,0,1.6,0c0.1,0,0.2,0.1,0.2,0.2C56.7,10.2,56.7,11.4,56.7,12.5z"></path> <radialGradient id="SVGID_3_" cx="45.8628" cy="16.5198" r="4.1245" gradientUnits="userSpaceOnUse"> <stop offset="0" style="stop-color:#FCE103"></stop> <stop offset="0.2" style="stop-color:#FACE08"></stop> <stop offset="0.4" style="stop-color:#F6B90D"></stop> <stop offset="0.6" style="stop-color:#F4A511"></stop> <stop offset="0.8" style="stop-color:#F08D17"></stop> <stop offset="1" style="stop-color:#EE7F1B"></stop> </radialGradient> <circle class="st7" cx="47.1" cy="18.1" r="3.6"></circle> <linearGradient id="SVGID_4_" gradientUnits="userSpaceOnUse" x1="37.5324" y1="9.979" x2="43.5388" y2="15.8113"> <stop offset="0" style="stop-color:#FCE103"></stop> <stop offset="0.5" style="stop-color:#FACE08"></stop> <stop offset="1" style="stop-color:#7FC224"></stop> </linearGradient> <path class="st8" d="M44.9,11.1C44.9,11.1,44.9,11.1,44.9,11.1c-0.6,1.5-1.2,3-1.8,4.4c-0.3,0.8-0.7,1.6-1,2.5 c-0.1,0.1-0.1,0.2-0.3,0.2c-0.7,0-1.3,0-2,0c-0.1,0-0.2,0-0.3-0.2c-0.6-1.6-1.3-3.1-1.9-4.7c-0.1-0.2-0.2-0.4-0.2-0.6 c-0.2-0.5-0.5-1.1-0.7-1.7c0.9,0,1.8,0,2.7,0c0.1,0,0.2,0,0.2,0.1c0.1,0.3,0.1,0.5,0.2,0.8c0.1,0.2,0.1,0.4,0.2,0.7 c0.3,1,0.6,1.9,0.9,2.9c0.4-1.2,0.8-2.4,1.2-3.6c0,0,0,0,0,0c0.2-0.9,0.2-0.9,1.2-0.9c0.5,0,1,0,1.5,0C44.8,11,44.9,11,44.9,11.1z "></path> <linearGradient id="SVGID_5_" gradientUnits="userSpaceOnUse" x1="28.9014" y1="18.0628" x2="64.4591" y2="18.0628"> <stop offset="0" style="stop-color:#EF8519"></stop> <stop offset="0.15" style="stop-color:#F08D17"></stop> <stop offset="0.3" style="stop-color:#F4A511"></stop> <stop offset="0.5" style="stop-color:#F6B90D"></stop> <stop offset="0.65" style="stop-color:#FACE08"></stop> <stop offset="1" style="stop-color:#FCE103"></stop> </linearGradient> <path class="st9" d="M56.5,32.9c-1.2,0.8-2.4,1.4-3.7,1.9c-1,0.4-2,0.6-3,0.8c-1.5,0.3-3,0.3-4.6,0.2c0,0-0.1,0-0.1,0 c-1.8-0.1-3.5-0.6-5.2-1.3c-0.9-0.4-1.8-0.8-2.6-1.4c-1.4-0.8-2.6-1.9-3.7-3.1c-0.3-0.3-0.6-0.7-0.9-1.1c-0.8-0.9-1.4-1.9-1.9-3 c-1.2-2.5-1.9-5.2-1.9-8c0-3.9,1.2-7.5,3.5-10.6c0.1-0.1,0.1-0.2,0.2-0.2c0.8-1,1.7-2,2.7-2.8c1.1-1,2.4-1.7,3.7-2.4 c0.1,0,0.2-0.1,0.3-0.1c1.1-0.5,2.2-0.9,3.4-1.1c0.2,0,0.5-0.1,0.7-0.1c0.5-0.2,1.1-0.2,1.7-0.2c1.3-0.1,2.5-0.1,3.8,0.1 c1.2,0.2,2.3,0.4,3.5,0.8c0,0,0.1,0,0.1,0.1c0.9,0.3,1.7,0.6,2.5,1.1c1.8,1,3.4,2.2,4.7,3.7c0.1,0.2,0.2,0.2,0,0.3 c-1.4,0.7-2.7,1.4-4.1,2c-0.1,0.1-0.2,0.1-0.3,0c-0.8-0.8-1.7-1.4-2.7-1.9c-1-0.5-2.1-0.9-3.3-1.2c-1.9-0.4-3.9-0.4-5.8,0.1 c-1.4,0.4-2.8,1-4,1.8c-1.3,0.9-2.4,2-3.4,3.3c-1.3,1.9-2.2,4-2.4,6.3c-0.4,4,0.9,7.4,3.6,10.3c0,0,0,0,0.1,0.1 c1.1,1,2.2,1.9,3.5,2.6c1.2,0.6,2.5,1,3.9,1.2c0,0,0.1,0,0.1,0c1,0.1,2,0.1,2.9,0c1.6-0.2,3.1-0.6,4.5-1.3c0.1,0,0.2-0.1,0.3-0.1 c1.1-0.6,2.1-1.3,3-2.2c0.2-0.2,0.5-0.5,0.7-0.7c0.5-0.6,1-1.3,1.4-2c1.3-2.3,1.9-4.8,1.7-7.5c0-0.1,0-0.2,0.1-0.3 c1.5-0.7,2.9-1.5,4.4-2.2C65.4,20,63.6,28.3,56.5,32.9z"></path> </g> </g> </svg> 